<?xml version="1.0" encoding="UTF-8"?>
<svg width="128px" height="128px" version="1.1" viewBox="0 0 128 128" xml:space="preserve" xmlns="http://www.w3.org/2000/svg"><g><path d="m115.48 103.92c1.4134 0 2.7664-0.49665 3.9904-1.1972 2.5137-1.4383 4.3909-3.5839 4.3896-6.7843-5.6e-4 -1.401-0.48959-2.7772-1.1971-3.9899l-29.929-51.478c-0.70643-1.2133-1.5696-2.093-2.7932-2.7936-3.4267-1.9604-6.4055-1.1298-8.38 0-1.224 0.70051-2.0871 1.5803-2.7935 2.7936l-7.5818 13.169-15.164-25.54c-0.70699-1.213-1.569-2.4912-2.7932-3.1914-1.9337-1.1065-6.048-1.1061-7.9811 0-1.224 0.70022-2.4852 1.9784-3.1922 3.1914l-37.112 63.85c-0.70753 1.2127-0.79748 2.5889-0.79811 3.9899-0.00142 3.1514 0.58633 4.8362 3.9905 6.7843 1.2241 0.7005 2.577 1.1972 3.9905 1.1972z" fill="#00dc82" stroke="#fff" stroke-width="8.2856" style="paint-order:stroke fill markers"/><path class="st0" d="m49.228 37.528c-1.2023 4.5731-5.2815 8.6309-9.5325 12.903-6.3979 6.3765-13.633 13.612-13.633 24.476 0 12.796 10.37 23.166 23.166 23.166 12.796 0 23.166-10.37 23.166-23.166 0-10.864-7.2567-18.099-13.633-24.476-4.251-4.251-8.3302-8.3088-9.5325-12.903z"/></g><style type="text/css">.st0{fill:#009CDE;}</style></svg>
